<?xml version="1.0" standalone="no"?>
<!DOCTYPE svg PUBLIC "-//W3C//DTD SVG 20010904//EN"
 "http://www.w3.org/TR/2001/REC-SVG-20010904/DTD/svg10.dtd">
<svg version="1.0" xmlns="http://www.w3.org/2000/svg"
 width="260.000000pt" height="260.000000pt" viewBox="0 0 260.000000 260.000000"
 preserveAspectRatio="xMidYMid meet">
<metadata>
Created by potrace 1.11, written by Peter Selinger 2001-2013
</metadata>
<g transform="translate(0.000000,260.000000) scale(0.100000,-0.100000)"
fill="#000000" stroke="none">
<path d="M1615 1914 c-215 -31 -391 -122 -513 -268 -142 -170 -193 -410 -135
-646 59 -245 260 -439 529 -512 118 -31 347 -31 458 0 167 48 293 137 378 266
35 55 37 61 21 70 -10 6 -81 45 -158 87 -140 78 -140 78 -154 56 -8 -12 -38
-45 -66 -73 -66 -66 -141 -95 -240 -96 -163 0 -277 69 -344 211 -24 51 -26 67
-26 181 0 122 1 128 33 192 63 129 176 199 322 200 130 1 214 -38 291 -134 23
-29 46 -52 50 -51 5 2 76 39 159 84 171 92 162 74 84 185 -23 33 -66 79 -96
101 -63 50 -180 106 -263 128 -58 16 -269 28 -330 19z"/>
<path d="M450 959 c-35 -11 -93 -50 -118 -79 -51 -60 -69 -191 -36 -268 19
-47 67 -98 119 -125 57 -31 173 -30 231 0 53 28 107 91 122 142 17 54 15 145
-4 189 -19 47 -68 98 -119 124 -46 24 -144 32 -195 17z"/>
</g>
</svg>
